<svg height="auto" viewBox="0 0 292 87" fill="none" xmlns="http://www.w3.org/2000/svg"><path d="M3.734 80.445V19.244a6 6 0 015.805-5.997L284.167 4.34c3.714-.12 6.643 3.128 6.14 6.81l-9.586 70.109a6 6 0 01-5.944 5.187H9.734a6 6 0 01-6-6z" fill="#BA2B3E"/><path d="M.734 76.445V15.244a6 6 0 015.805-5.997L281.167.34c3.714-.12 6.643 3.128 6.14 6.81l-9.586 70.109a6 6 0 01-5.944 5.187H6.734a6 6 0 01-6-6z" fill="url(#paint0_linear)"/><path d="M.734 76.445V15.244a6 6 0 015.805-5.997L281.167.34c3.714-.12 6.643 3.128 6.14 6.81l-9.586 70.109a6 6 0 01-5.944 5.187H6.734a6 6 0 01-6-6z" fill="url(#paint1_linear)" fill-opacity=".25"/><path d="M244.355 37.558h-7.247l8.052 9.47-8.052 9.472h7.247l8.052-9.471-8.052-9.471z" fill="#fff" fill-opacity=".4"/><path d="M233.081 37.558h-7.247l8.053 9.47-8.053 9.472h7.247l8.053-9.471-8.053-9.471z" fill="#fff" fill-opacity=".4"/><defs><linearGradient id="paint0_linear" x1="252.472" y1="82.445" x2="-20.738" y2="82.445" gradientUnits="userSpaceOnUse"><stop stop-color="#FF3D58"/><stop offset="1" stop-color="#FF3D58"/></linearGradient><linearGradient id="paint1_linear" x1="-50.921" y1="82.445" x2="222.81" y2="82.445" gradientUnits="userSpaceOnUse"><stop stop-color="#fff" stop-opacity=".6"/><stop offset="1" stop-color="#fff" stop-opacity="0"/></linearGradient></defs></svg>